<?xml version="1.0" standalone="no"?>
<!DOCTYPE svg PUBLIC "-//W3C//DTD SVG 20010904//EN"
 "http://www.w3.org/TR/2001/REC-SVG-20010904/DTD/svg10.dtd">
<svg version="1.0" xmlns="http://www.w3.org/2000/svg"
 width="174.000000pt" height="174.000000pt" viewBox="0 0 174.000000 174.000000"
 preserveAspectRatio="xMidYMid meet">
<metadata>
Created by potrace 1.11, written by Peter Selinger 2001-2013
</metadata>
<g transform="translate(0.000000,174.000000) scale(0.100000,-0.100000)"
fill="#000000" stroke="none">
<path d="M265 1361 c-147 -36 -219 -193 -148 -323 29 -54 100 -107 231 -172
130 -65 192 -141 192 -236 0 -114 -84 -190 -210 -190 -94 0 -183 66 -236 178
-48 101 -55 52 -16 -105 l17 -68 55 -19 c76 -27 246 -29 312 -3 55 21 120 88
139 143 7 21 13 68 14 104 0 54 -5 73 -28 113 -35 58 -83 94 -238 177 -66 35
-131 76 -144 92 -72 86 -48 215 48 258 116 53 256 -13 289 -136 7 -26 18 -44
26 -44 12 0 14 12 8 61 -3 34 -6 83 -6 108 l0 47 -33 -4 c-18 -2 -60 3 -94 12
-64 17 -127 19 -178 7z"/>
<path d="M743 1337 c-5 -8 2 -10 62 -23 66 -15 66 -12 63 -441 -3 -427 0 -410
-74 -422 -21 -3 -39 -12 -42 -19 -3 -9 33 -12 157 -12 104 0 161 4 161 10 0 6
-6 12 -12 14 -7 2 -32 9 -55 15 -57 16 -63 38 -63 246 l0 173 31 6 c41 8 437
8 478 0 l31 -6 -1 -142 c-1 -156 -10 -251 -25 -266 -6 -6 -30 -14 -54 -18 -24
-4 -45 -13 -48 -20 -3 -9 34 -12 157 -12 136 0 161 2 161 15 0 10 -10 15 -31
15 -32 0 -69 15 -81 34 -4 6 -8 185 -8 397 0 439 -2 425 78 436 23 3 42 11 42
17 0 8 -49 11 -160 11 -91 0 -159 -4 -157 -9 2 -5 24 -14 50 -21 26 -7 50 -15
53 -18 14 -14 23 -100 24 -229 l0 -138 -270 0 -270 0 0 154 c0 84 5 167 11
184 10 30 48 52 90 52 11 0 19 6 19 13 0 9 -38 12 -156 12 -86 0 -158 -3 -161
-8z"/>
</g>
</svg>
